<svg xmlns="http://www.w3.org/2000/svg" viewBox="0 0 24 24" fill="none" stroke="currentColor" width="30" height="30"
  stroke-width="2" stroke-linecap="round" stroke-linejoin="round" stroke-miterlimit="10">
  <path
    d="M12 9.2a1.5 1.5 0 01-.9-.3 2.261 2.261 0 00-1.6-.4 2.028 2.028 0 00-1.1.7 1.841 1.841 0 00-.5 1.3 5.433 5.433 0 00.8 2.5 6.829 6.829 0 002.6 2.4c.2.1.5.209.7.3.216-.1.5-.2.7-.3a6.829 6.829 0 002.6-2.4 5.433 5.433 0 00.8-2.5 1.841 1.841 0 00-.5-1.3 2.028 2.028 0 00-1.1-.7 2.261 2.261 0 00-1.6.4 1.5 1.5 0 01-.9.3z"
    stroke="url(#paint0_linear)" />
  <circle cx="12" cy="12" r="9" stroke="url(#paint0_linear)" />

  <defs>
    <linearGradient id="paint0_linear" x1="16.9019" y1="39.2841" x2="47.9802" y2="11.4768"
      gradientUnits="userSpaceOnUse">
      <stop stop-color="#0F8AFE" stop-opacity="0.94769" />
      <stop offset="1" stop-color="#67C414" stop-opacity="0.846637" />
    </linearGradient>
  </defs>
</svg>