<svg width="30" height="27" viewBox="0 0 30 27" fill="none" xmlns="http://www.w3.org/2000/svg">
    <mask id="mask0" mask-type="alpha" maskUnits="userSpaceOnUse" x="0" y="0" width="30" height="27">
        <path fill-rule="evenodd" clip-rule="evenodd" d="M0 0H30V26.6146H0V0Z" fill="white" />
    </mask>
    <g mask="url(#mask0)">
        <path fill-rule="evenodd" clip-rule="evenodd"
            d="M27.3847 8.55076C27.3847 8.34558 27.4549 8.14657 27.5903 7.99274L27.5911 7.99178C27.8885 7.65345 28.1859 7.31511 28.4849 6.97846C28.952 6.45237 29.831 6.71242 29.9242 7.41102C30.2644 9.96418 29.4599 12.6428 27.5094 14.6004L15.9284 26.2291C15.6726 26.4862 15.3373 26.6146 15.0021 26.6146C14.6669 26.6146 14.3317 26.4862 14.0759 26.2291L2.49483 14.6004C0.717422 12.8157 -0.177602 10.382 0.0293281 7.83088C0.171558 6.07637 0.861512 4.39747 1.99321 3.05312C3.6256 1.11361 5.9446 0.0242736 8.43297 0.000377391C10.764 -0.0220253 12.9951 0.954174 14.6435 2.60955L15.0021 2.96949L15.4645 2.505L15.4915 2.47868C17.5314 0.446938 20.3485 -0.33361 22.9856 0.136287C23.9806 0.313456 24.3818 1.53086 23.7077 2.28658L23.6889 2.30749C23.3922 2.64054 22.9452 2.79512 22.507 2.71858C22.1738 2.66033 21.8336 2.63046 21.4885 2.63027H21.4872C19.913 2.63027 18.4335 3.24579 17.3196 4.36331C17.3114 4.37171 17.3036 4.37955 17.2953 4.38721L15.9284 5.75993C15.4167 6.27352 14.5873 6.27352 14.0759 5.75993L12.687 4.36536C11.5375 3.21106 10.0272 2.63345 8.51682 2.63345C7.00732 2.63345 5.4969 3.21106 4.34735 4.36536C2.04825 6.67453 2.04825 10.4309 4.34735 12.7401L15.0021 23.4389L25.6569 12.7401C26.7706 11.6218 27.3847 10.1354 27.3847 8.55393V8.55076ZM15.1609 15.2983C15.4038 15.5242 15.7234 15.6621 16.0685 15.6621C16.4136 15.6621 16.733 15.5242 16.9631 15.2983L29.7453 2.73872C30.2439 2.24948 30.2439 1.45883 29.7453 0.96959C29.2469 0.480166 28.4416 0.480166 27.9432 0.96959L16.0685 12.6382L13.1287 9.76503C12.6301 9.27578 11.8248 9.27578 11.3264 9.76503C10.8278 10.2544 10.8278 11.0447 11.3264 11.5342L15.1609 15.2983Z"
            fill="url(#paint0_linear)" />
    </g>
    <defs>
        <linearGradient id="paint0_linear" x1="16.9019" y1="39.2841" x2="47.9802" y2="11.4768"
            gradientUnits="userSpaceOnUse">
            <stop stop-color="#0F8AFE" stop-opacity="0.94769" />
            <stop offset="1" stop-color="#67C414" stop-opacity="0.846637" />
        </linearGradient>
    </defs>
</svg>