<svg width="31" height="31" viewBox="0 0 31 31" fill="none" xmlns="http://www.w3.org/2000/svg">
<circle cx="15.6426" cy="15.8984" r="14" fill="url(#paint0_linear_699_13783)"/>
<path d="M18.9386 9.58398C17.8674 9.58398 16.8401 10.0095 16.0826 10.7668L15.3017 11.5452L14.5233 10.7668C13.7598 10.0394 12.7421 9.63927 11.6876 9.65202C10.6331 9.66476 9.62533 10.0893 8.87961 10.835C8.1339 11.5808 7.70933 12.5885 7.69658 13.643C7.68384 14.6975 8.08393 15.7152 8.8114 16.4788L9.58975 17.2571L15.3017 22.969L21.0136 17.2571L21.792 16.4788C22.5493 15.7213 22.9748 14.694 22.9748 13.6228" stroke="white" stroke-width="2" stroke-linecap="round" stroke-linejoin="round"/>
<path d="M12.9748 13.896L15.574 16.2761L23.5884 8.82715" stroke="white" stroke-width="2" stroke-linecap="round"/>
<defs>
<linearGradient id="paint0_linear_699_13783" x1="18.7411" y1="24.8526" x2="7.10589" y2="0.687068" gradientUnits="userSpaceOnUse">
<stop stop-color="#378E8A"/>
<stop offset="1" stop-color="#3FB5B0"/>
</linearGradient>
</defs>
</svg>
